<svg width="472" height="363" viewBox="0 0 472 363" fill="none" xmlns="http://www.w3.org/2000/svg">
<path fill-rule="evenodd" clip-rule="evenodd" d="M147.109 164.687C148.827 182.024 150.544 199.361 152.261 216.698C161.609 211.364 170.958 206.029 180.307 200.695V240.191V250.573C180.307 251.491 179.761 254.647 180.307 255.442C180.769 256.117 184.195 256.136 185.005 256.25C190.29 256.99 195.589 257.648 200.895 258.234C214.879 259.779 229.846 261.991 243.883 260.216C256.085 258.674 267.914 254.334 279.063 249.284C282.977 247.511 286.836 245.613 290.624 243.586C291.427 243.156 294.342 242.141 294.778 241.266C295.135 240.551 294.298 238.039 294.187 237.287C293.716 234.119 293.244 230.951 292.773 227.784L286.194 183.548L298.623 195.959C299.597 196.932 301.445 199.692 302.793 200.123C303.781 200.439 306.227 199.461 307.203 199.273C314.241 197.917 321.278 196.561 328.316 195.205C329.955 194.889 333.651 194.901 335.033 193.91C335.777 193.377 335.812 192.291 336.075 191.262C337.791 184.538 339.508 177.813 341.224 171.089C341.533 169.878 343.258 166.059 342.82 164.839C342.662 164.402 341.901 164.103 341.435 163.818C330.814 157.331 320.191 150.843 309.57 144.355C303.751 140.801 297.933 137.248 292.114 133.694C289.677 132.205 286.683 129.522 283.921 128.69C282.207 128.172 279.713 128.56 277.938 128.509C274.333 128.406 270.728 128.303 267.123 128.2C266.559 128.184 264.582 127.782 264.107 128.115C263.711 128.391 263.875 128.777 263.745 129.437C263.428 131.047 263.426 132.784 263.27 134.419C263.144 135.732 263.393 138.138 262.802 139.326C262.424 140.085 262.903 139.782 262.392 140.149C261.784 140.586 259.841 140.445 259.117 140.529C255.585 140.94 252.051 141.35 248.519 141.76C244.319 142.248 240.072 143.164 235.852 142.742C229.454 142.103 222.557 142.135 216.275 140.787C214.643 140.437 214.054 139.517 212.795 138.26C210.337 135.805 207.904 133.323 205.42 130.894C204.202 129.704 204.723 129.906 203.468 130.357C201.895 130.923 200.299 132.288 198.875 133.155C193.418 136.479 187.962 139.802 182.506 143.126L149.194 163.417C148.499 163.841 147.804 164.264 147.109 164.687Z" fill="#6366F1"/>
<path fill-rule="evenodd" clip-rule="evenodd" d="M465.727 166.842C458.86 192.912 445.049 221.338 417.225 229.648C410.461 231.668 403.88 233.193 396.854 232.424C396.185 232.351 395.625 232.445 394.989 232.457C393.85 232.478 394.834 232.888 393.556 232.493C392.559 232.186 391.627 231.416 390.588 231.076C387.827 230.172 384.884 229.998 382.078 229.268C375.183 227.474 368.078 225.26 361.397 222.786C358.251 221.622 355.36 220 352.401 218.44C349.393 216.854 346.206 215.87 343.164 214.416C340.76 213.266 336.642 211.768 334.952 209.612C333.15 207.312 335.643 202.417 336.356 199.972C338.779 191.654 341.665 183.458 343.487 174.975C349.776 182.263 358.505 186.777 367.542 189.689C372.445 191.268 377.489 192.41 382.589 193.125C387.219 193.774 392.214 194.559 396.855 193.638C400.359 192.942 404.757 191.332 407.259 188.658C408.152 187.703 409.224 185.953 408.723 184.566C408.088 182.805 406.238 183.634 405.236 182.32C404.364 181.176 404.5 178.499 404.222 177.106C403.73 174.64 403.055 172.241 402.23 169.867C400.629 165.257 398.634 160.637 398.156 155.732C397.741 151.477 398.71 147.453 400.833 143.76C401.836 142.014 404.355 137.266 406.814 137.463C409.514 137.679 405.873 149.059 405.754 151.38C405.282 160.582 406.516 170.387 411.238 178.452C413.046 181.541 415.661 185.136 419.521 185.519C423.61 185.924 426.908 182.707 428.854 179.452C433.602 171.511 431.208 160.614 428.803 152.291C425.853 142.079 418.153 135.041 413.284 125.87C420.554 126.601 424.446 131.218 428.176 137.077C432.284 143.527 435.481 151.271 437.058 158.775C437.854 162.567 437.304 166.375 437.309 170.204C437.311 171.476 437.311 176.169 439.385 175.984C441.601 175.786 442.361 170.493 442.687 168.879C443.435 165.175 444.243 161.471 444.892 157.75C446.04 151.165 446.551 144.421 447.926 137.881C448.158 136.776 448.621 133.709 450.276 134.537C451.552 135.175 451.347 139.918 451.394 141.021C451.508 143.738 451.669 146.454 451.691 149.174C451.724 153.205 450.92 157.378 451.314 161.384C451.572 164.002 452.977 166.895 454.718 163.364C456.446 159.863 456.798 155.496 457.761 151.731C458.773 147.778 459.817 143.767 461.964 140.256C462.56 139.281 463.2 137.735 464.524 138.193C465.485 138.526 466.195 140.806 466.493 141.611C467.834 145.246 467.607 149.289 467.522 153.095C467.418 157.759 466.918 162.32 465.727 166.842ZM331.825 173.607C331.458 173.489 329.899 173.341 329.512 173.307C329.059 173.268 329.574 172.433 328.477 172.67C328.689 173.195 329.065 173.545 329.606 173.721C327.956 174.279 326.74 172.901 325.613 172.724C324.534 172.554 324.489 172.724 323.423 173.863C322.27 172.456 322.486 173.334 321.538 173.334C321.193 173.335 321.178 173.856 320.616 173.794C320.126 173.739 320.075 172.995 319.785 172.908C318.211 172.431 316.592 174.827 314.807 172.749C314.374 174.912 309.42 172.202 307.513 172.583C305.515 172.98 306.377 173.697 304.762 172.472C303.223 171.306 303.652 172.081 301.862 173.035C301.904 173.013 300.852 173.724 300.95 173.735C299.711 173.59 299.781 172.309 298.212 172.377C296.551 172.449 295.842 173.751 294.322 172.149C293.991 173.349 293.923 172.832 293.144 173.134C292.716 173.236 292.341 173.123 292.019 172.797C291.922 173.127 291.708 173.329 291.377 173.404C290.529 173.48 288.936 173.598 288.165 173.189C287.009 172.576 287.939 172.341 287.137 171.651C286.778 173.552 285.99 173.148 284.329 173.326C283.061 173.461 282.782 173.073 281.572 172.884C280.38 172.697 278.839 173.16 277.676 173.357C277.196 173.439 276.553 173.774 276.064 173.656C275.624 173.55 275.435 173.208 275.172 173.119C274.853 173.011 274.921 172.732 274.369 172.597C273.988 172.504 273.307 172.861 272.927 172.922C270.216 173.362 267.612 173.367 265.025 172.3C266.299 174.539 262.048 173.33 261.29 172.404C260.343 173.888 259.197 172.84 257.288 172.956C255.449 173.067 252.684 173.63 251.938 171.341C251.792 171.806 250.749 173.157 250.334 173.363C249.128 173.96 248.985 173.077 247.864 172.717C246.339 172.227 246.657 173.157 245.711 173.346C244.115 173.665 243.252 172.541 241.841 171.944C241.781 172.873 241.75 173.444 240.947 174.023C240.236 171.432 237.697 174.235 238.133 170.772C237.166 171.401 235.807 171.885 235.532 173.157C237.148 172.712 235.704 173.768 235.637 173.803C235.423 173.915 234.702 172.902 234.534 172.76C234.489 173.237 234.443 173.715 234.398 174.193C233.754 173.871 233.15 173.295 232.628 173.006C232.157 172.746 232.831 172.205 232.036 172.168C231.617 172.148 231.18 173.055 230.74 173.133C230.067 173.251 230.39 172.286 230.109 172.318C229.68 172.367 228.981 172.995 228.657 172.983C227.593 172.943 228.313 172.448 227.502 172.221C226.052 171.815 226.145 172.764 225.103 173.106C222.718 173.889 222.957 170.286 220.531 172.689C219.951 173.264 219.577 174.152 218.782 174.102C217.135 173.999 217.713 172.047 218.048 171.091C218.394 171.261 212.032 174.53 212.082 174.402C212.122 173.618 213.123 173.014 212.228 172.318C211.497 173.886 210.728 173.914 209.041 174.206C208.222 174.348 208.06 174.538 207.183 174.197C206.624 173.98 206.249 173.089 205.694 173.04C205.769 173.047 204.749 173.823 204.593 173.893C203.673 174.307 203.09 173.837 202.196 174.008C201.434 174.153 201.133 174.802 200.375 174.624C199.362 174.388 199.957 173.178 198.564 173.516C198.088 173.631 197.802 174.548 197.051 174.738C195.882 175.034 194.448 174.482 193.212 174.77C192.231 174.999 191.503 175.096 190.645 175.144C189.952 175.183 190.237 174.644 188.961 175.28L188.42 173.916C187.782 174.491 187.143 175.065 186.504 175.639C186.383 175.124 186.306 174.603 186.274 174.075C185.321 175.029 184.122 175.192 182.841 175.278C181.455 175.37 180.422 175.673 179.073 175.927C178.646 176.006 177.548 176.134 177.197 175.985C177.248 176.007 176.541 175.712 176.754 175.768C176.662 175.581 176.577 175.391 176.498 175.197C176.379 174.659 175.992 174.636 175.338 175.126C174.999 175.074 174.343 174.63 174.005 174.74C173.135 175.022 173.254 175.697 172.386 175.598C171.824 175.533 171.537 174.702 170.951 174.645C170.055 174.559 169.278 175.563 168.47 175.782C170.926 175.115 165.285 175.632 167.039 175.678C165.889 175.648 164.695 175.591 163.632 176.106C163.045 175.705 163.758 174.898 163.165 174.566C162.626 174.264 162.585 175.06 162.522 175.078C162.862 174.981 162.692 175.658 162.352 175.779C161.294 176.154 160.447 175.2 160.392 174.254C159.493 175.608 159.241 175.063 157.918 175.147C156.614 175.229 155.489 175.913 154.184 175.901C151.604 175.876 149.853 174.979 148.991 172.675C151.741 173.01 154.509 171.242 157.198 171.658C158.081 171.795 158.633 172.459 159.407 172.341C160.362 172.196 161.027 171.156 162.251 171.043C164.948 170.796 167.608 171.037 170.324 170.623C173.569 170.129 176.955 169.836 180.231 170.077C182.762 170.263 184.812 169.295 187.378 169.109C190.698 168.867 194.044 168.824 197.369 168.65C200.785 168.471 204.461 167.926 207.868 168.1C208.931 168.155 209.846 168.259 210.902 168.196C211.348 168.169 211.771 167.866 212.239 167.911C212.849 167.97 213.111 168.594 213.744 168.572C214.819 168.536 215.969 167.65 217.247 167.626C219.348 167.586 221.441 167.591 223.548 167.471C225.403 167.366 227.39 166.933 229.237 166.956C230.54 166.972 230.861 168.082 231.62 168.197C232.985 168.402 239.89 164.473 240.487 168C244.082 165.54 248.902 167.623 252.903 167.161C258.044 166.567 263.278 167.096 268.453 166.884C273.719 166.669 279.136 166.868 284.382 167.365C286.554 167.571 288.653 167.764 290.832 167.639C291.803 167.583 292.926 167.335 293.897 167.559C294.133 167.614 295.934 168.871 295.71 168.907C296.694 168.024 296.028 167.894 297.759 167.849C299.094 167.814 300.355 168.102 301.682 168.181C304.064 168.322 306.463 167.992 308.839 168.064C310.823 168.125 312.763 168.418 314.757 168.432C316.907 168.448 319.446 168.508 321.001 170.241C320.837 169.697 320.673 169.153 320.509 168.609C322.909 168.797 325.28 169.653 327.706 169.253C327.092 169.84 326.469 170.321 326.235 171.183C327.543 171.017 328.428 170.104 329.806 170.096C330.963 170.09 331.203 170.67 332.425 169.92C332.575 170.839 332.725 171.757 332.876 172.676C334.567 172.278 333.457 171.016 333.581 169.879C334.956 170.292 336.12 169.818 335.578 171.796C335.16 173.321 333.257 174.072 331.825 173.607ZM329.448 190.591C328.858 192.248 323.756 191.301 322.55 191.126C320.991 190.901 319.208 190.543 317.773 190.365C317.6 190.135 317.394 189.941 317.154 189.78C316.973 190.032 316.745 190.21 316.468 190.315C315.809 190.46 315.807 191.14 314.941 190.989C314.901 191.996 315.6 191.424 316.136 191.789C314.786 192.694 315.403 191.653 314.646 191.669C314.458 191.403 314.197 191.299 313.861 191.356C313.435 191.466 313.041 191.649 312.681 191.904C312.344 192.26 312.055 192.279 311.814 191.96C311.583 191.728 311.302 191.584 310.97 191.53C309.64 191.747 309.268 192.336 307.77 192.24C305.63 192.102 303.315 192.666 301.208 192.369C299.903 192.185 297.722 190.134 297.129 192.134C296.226 190.651 294.789 189.643 293.925 188.128C297.95 187.896 301.974 187.619 306.003 187.473C309.53 187.346 313.389 187.743 316.685 187.577C319.773 187.421 323.043 187.08 326.196 186.798C329.538 186.5 330.643 187.233 329.448 190.591ZM224.434 190.836C225.896 191.24 227.287 190.323 228.705 190.613C229.174 190.709 230.144 191.562 230.357 191.579C230.747 191.61 231.895 190.772 232.387 190.66C235.501 189.952 239.272 190.027 242.385 190.462C244.035 190.693 244.287 189.938 245.727 189.571C247.224 189.19 249.351 189.484 250.927 189.378C254.634 189.13 258.34 189.307 262.021 189.036C265.802 188.757 269.563 188.607 273.345 188.412C275.921 188.28 282.112 186.81 284.247 188.722C286.008 190.299 283.739 193.037 281.978 193.662C280.661 194.128 280.03 193.145 279.052 193.239C277.939 193.346 278.327 194.661 277.333 193.441C276.718 194.654 272.847 194.137 271.738 194.217C269.321 194.392 267.276 194.877 265.631 192.622C265.742 193.272 265.854 193.923 265.965 194.573C263.783 193.407 261.442 193.78 259.548 194.187C258.61 194.388 255.732 195.779 254.716 195.179C254.017 194.767 255.249 194.061 254.069 193.709C253.451 193.524 252.384 194.551 251.629 194.499C249.538 194.355 250.132 192.95 248.079 194.739C247.383 194.137 247.152 193.115 247.243 192.238C245.752 193.51 245.877 195.63 243.21 195.242C242.217 195.098 242.034 194.084 241.516 193.897C240.412 193.499 240.287 194.215 239.331 194.782C238.97 194.996 238.53 195.34 238.105 195.383C237.232 195.47 237.094 195.069 236.974 195.082C236.394 195.146 235.662 195.441 234.973 195.231C234.354 195.041 234.173 193.95 233.084 194.205C232.041 194.449 232.032 195.158 232.221 196.218C231.193 196.111 230.571 195.539 229.802 194.918C229.025 196.73 227.39 195.229 226.485 196.758C225.307 195.351 224.551 195.739 223.09 194.365C223.162 194.938 223.233 195.511 223.305 196.085C222.164 195.865 221.657 195.06 220.684 196.125C219.739 194.365 216.875 196.872 215.404 195.173C214.749 197.325 210.411 196.81 208.579 196.847C206.955 196.881 205.753 196.748 204.167 197.125C202.765 197.458 200.822 197.803 199.503 197.651C198.642 197.551 197.7 197.393 196.627 197.51C195.08 197.678 193.743 198.479 192.14 198.1C189.727 197.53 188.247 194.359 190.936 192.967C192.775 192.014 196.089 192.367 198.114 192.191C201.469 191.899 205.229 191.288 208.589 191.566C211.21 191.783 213.598 191.158 216.272 190.894C218.285 190.695 221.584 190.337 222.897 192.332C223.401 191.749 223.349 190.536 224.434 190.836ZM187.705 218.145C187.344 216.35 202.683 215.362 204.206 215.245C207.402 214.999 210.608 214.823 213.812 214.741C216.446 214.674 218.904 215.177 221.538 214.773C223.999 214.395 226.968 213.622 229.109 215.363C229.425 212.981 238.658 214.142 240.415 214.149C248.061 214.176 255.379 214.194 262.775 213.72C267.002 213.45 271.491 213.086 275.719 213.297C277.626 213.393 279.162 213.901 281.058 213.46C282.295 213.172 283.628 212.574 284.811 213.419C286.195 214.41 286.787 217.774 285.833 219.177C285.139 220.2 284.524 220.087 283.414 219.91C281.708 219.638 280.44 219.244 278.701 219.937C278.983 219.825 277.535 220.148 277.655 220.138C275.685 220.286 272.982 221.662 271.284 220.075C271.964 220.195 272.953 218.98 272.096 218.88C271.451 218.806 271.043 219.496 270.54 219.727C268.821 220.518 267.941 220.271 266.914 218.611C264.844 220.404 264.621 219.908 263.712 217.701C263.012 218.24 262.862 219.515 262.311 219.933C262.229 219.995 262.568 220.77 262.17 220.738C261.801 220.708 261.68 220.103 261.397 220.055C261.215 220.024 261.121 219.494 260.948 219.462C260.759 219.427 260.566 219.766 260.353 219.756C259.784 219.729 258.157 220.94 258.741 219.24C257.879 220.337 257.508 219.638 257.197 218.64C256.201 219.397 255.206 220.153 254.21 220.909C253.748 219.623 252.951 219.973 251.949 220.423C252.251 219.529 252.062 218.684 251.304 219.305C250.866 219.665 250.571 220.807 250.122 221.292C248.305 219.452 247.644 219.956 245.134 220.196C244.175 220.287 242.984 220.464 242.128 219.885C241.376 219.376 240.95 217.509 239.663 219.018C239.949 218.682 239.5 221.259 239.421 221.668C238.853 221.286 238.371 220.815 237.974 220.257C237.233 221.723 235.289 220.408 233.696 220.707C231.187 221.179 228.6 221.974 226.384 220.107C226.227 220.709 224.412 221.477 224.41 221.5C224.517 220.433 225.191 220.809 223.816 220.606C223.563 220.569 223.276 221.024 223.036 221.074C222.217 221.243 221.259 221.082 220.433 221.059C216.996 220.96 213.85 221.722 210.456 221.998C209.311 222.09 207.955 222.273 206.88 221.842C205.774 221.397 205.804 220.892 204.685 221.179C205.039 221.088 203.985 222.195 204.042 222.153C203.892 222.263 203.264 221.723 203.04 221.763C202.975 221.999 202.911 222.235 202.845 222.471C202.575 222.438 202.305 222.405 202.036 222.372C201.298 222.471 200.632 221.724 199.939 221.699C200.066 221.703 198.068 222.447 198.158 222.492C196.763 221.797 197.164 221.998 195.394 222.422C193.72 222.822 192.055 222.729 190.338 222.979C185.344 223.704 188.32 221.201 187.705 218.145ZM183.295 243.11C182.356 241.778 184.854 241.318 185.652 241.2C186.964 241.007 188.705 241.392 189.58 241.183C190.912 240.866 192.197 240.11 193.696 239.905C195.588 239.646 197.495 239.605 199.395 239.442C200.028 239.388 200.812 239.17 201.427 239.207C202.344 239.262 202.725 239.747 203.466 239.751C204.726 239.757 206.282 238.961 207.575 238.815C209.23 238.627 210.901 238.539 212.564 238.457C216.068 238.283 219.536 238.355 223.038 238.351C224.635 238.349 228.889 236.691 229.686 238.55C230.793 237.141 233.633 237.333 235.217 237.292C238.006 237.221 240.766 236.952 243.552 236.822C245.938 236.711 248.605 237.222 250.948 236.864C252.239 236.667 252.667 236.253 254.132 236.44C255.22 236.578 256.878 236.003 257.812 236.257C257.764 236.244 258.977 236.996 258.599 237.02C259.016 236.993 258.991 237.285 259.451 237.155C260.055 236.985 259.778 236.225 261.029 235.956C262.982 235.535 265.585 236.022 267.614 235.914C269.582 235.809 271.546 235.764 273.517 235.773C274.423 235.777 275.544 235.56 276.427 235.737C276.859 235.824 277.778 236.388 278.144 236.331C279.182 236.169 279.711 235.448 281.114 235.493C282.705 235.543 284.137 235.521 285.719 235.4C287.25 235.283 287.496 235.064 288.255 236.339C289.007 237.603 289.215 239.249 287.83 240.108C288.73 240.049 289.836 241.254 288.776 241.92C288.121 242.333 286.808 241.402 286.024 241.469C285.057 241.553 284.299 242.063 283.247 242.095C282.142 242.129 281.019 242.407 279.929 242.428C278.793 242.451 277.935 241.943 276.857 242.159C275.909 242.35 275.809 243.126 274.668 242.444C274.101 242.105 274.005 240.848 273.232 240.837C272.194 240.821 272.608 242.16 272.012 242.78C271.852 240.865 270.373 244.035 269.785 241.709C269.243 242.482 267.236 243.562 266.264 242.941C265.378 242.376 265.672 241.097 265.303 240.175C264.689 241.831 263.04 243.55 263.19 240.534C262.389 241.52 260.225 241.364 260.767 243.089C260.115 243.077 259.96 242.145 259.411 242.075C258.937 242.014 258.561 242.378 258.488 242.373C258.748 242.394 257.712 242.739 257.696 242.743C258.397 242.6 255.673 242.357 256.137 242.361C255.504 242.356 254.73 242.874 253.991 242.872C253.318 242.87 252.648 242.605 251.983 242.53C250.26 242.333 250.618 242.711 249.537 243.252C249.136 243.453 249.035 243.793 248.466 243.75C248.046 243.719 247.889 243.171 247.841 243.166C247.251 243.106 247.687 242.908 246.77 243C246.664 243.181 246.56 243.361 246.454 243.542C246.123 243.966 245.694 244.072 245.166 243.861C243.809 244.152 239.308 245.413 239.749 243.077C239.059 243.414 238.37 243.751 237.68 244.089C237.384 242.205 233.637 244.703 232.8 244.829C231.727 244.99 231.628 244.578 230.612 244.358C230.429 244.319 230.063 244.923 229.633 244.836C228.52 244.612 228.321 244.501 228.13 243.291C227.336 244.776 226.676 244.112 225.235 244.356C224.917 244.411 224.713 245.038 224.255 244.929C223.926 244.852 223.917 244.249 223.69 244.171C223.485 244.101 223.516 243.625 223.214 243.558C222.869 243.48 221.69 244.446 221.352 244.595C220.59 244.931 219.337 245.487 218.593 245.321C217.673 245.115 218.082 244.433 216.782 244.51C214.731 244.63 213.875 246.376 212.599 243.625C212.022 244.727 212.096 245.026 211.171 245.389C210.487 245.658 208.755 245.377 207.856 245.344C204.011 245.202 200.232 246.512 196.419 246.169C194.744 246.018 193.331 245.683 191.64 245.957C189.863 246.246 188.125 246.669 186.322 246.84C185.406 246.927 183.491 247.19 183.041 246.018C182.645 244.987 184.122 244.283 183.295 243.11ZM190.834 285.404C185.848 288.74 181.718 293.295 177.14 297.152C172.549 301.019 168.907 305.318 164.779 309.6C160.962 313.558 157.456 317.304 152.842 320.295C149.922 322.188 147.317 324.518 144.318 326.303C142.072 327.64 138.668 329.398 139.764 325.31C140.888 321.119 142.962 316.883 144.763 312.97C147.323 307.406 149.903 301.895 152.672 296.437C153.714 294.387 154.296 292.345 155.947 290.712C157.743 288.934 159.001 286.613 160.969 284.933C169.243 277.868 181.714 283.327 190.834 285.404ZM206.475 287.799C204.213 288.985 201.682 289.279 199.285 290.063C197.242 290.731 195.343 291.919 193.146 292.007C195.146 290.505 196.864 288.465 199.118 287.325C201.654 286.043 203.956 286.976 206.475 287.799ZM305.75 297.68C297.431 294.873 289.685 290.736 281.581 287.408C280.183 286.833 269.243 283.23 269.465 281.515C277.131 280.111 285.026 277.701 292.711 280.328C299.702 282.719 305.388 288.453 310.8 293.252C312.212 294.504 320.944 300.206 320.163 302.023C319.621 303.281 315.414 302.938 314.42 302.68C313.137 302.346 312.397 301.567 311.391 300.711C309.708 299.281 307.846 298.387 305.75 297.68ZM290.392 250.781C291.656 249.618 292.412 247.854 293.619 246.781C295.17 245.401 297.673 246.073 299.368 246.79C304.455 248.939 308.803 252.553 313.859 254.796C319.462 257.282 324.312 260.604 329.366 264.027C333.985 267.156 338.98 269.747 343.695 272.733C348.5 275.777 353.878 277.755 358.749 280.69C363.706 283.678 368.643 286.679 373.407 289.971C381.901 295.842 390.745 301.871 397.029 310.218C400.259 314.509 403.282 319.375 405.653 324.193C407.807 328.573 410.144 334.653 407.352 339.209C404.671 343.584 400.101 347.031 396.232 350.296C394.767 351.532 393.374 353.034 391.475 353.57C389.166 354.221 386.471 354.041 384.095 354.234C371.396 355.263 359.564 354.291 347.049 352.02C334.981 349.83 322.863 348.604 310.702 347.082C303.842 346.223 296.983 345.223 290.216 343.793C287.323 343.182 284.38 342.477 281.549 341.644C279.078 340.916 276.999 339.315 274.457 338.68C263.67 335.987 251.328 334.957 240.649 330.426C250.099 326.499 260.142 324.126 269.828 320.863C280.022 317.428 289.978 314.546 300.723 313.57C306.252 313.068 311.201 311.656 316.519 310.178C321.588 308.77 326.879 308.338 332.086 307.707C334.401 307.426 341.008 307.846 341.775 304.82C342.918 300.314 336.426 299.794 333.658 300.198C329.732 300.77 326.495 301.75 323.49 298.529C320.422 295.24 317.441 291.873 314.318 288.625C308.526 282.604 302.557 275.64 294.37 272.938C284.382 269.643 272.8 272.771 262.835 274.645C252.309 276.624 241.8 278.52 231.472 281.397C227.194 282.588 221.678 285.213 217.239 284.792C212.864 284.375 207.909 283.66 203.681 282.398C201.768 281.827 200.196 280.769 198.484 279.783C196.258 278.5 193.819 277.678 191.457 276.681C186.681 274.665 182.024 272.808 176.871 272.015C172.531 271.348 167.923 270.952 163.717 272.474C159.591 273.966 155.935 277.005 153.056 280.252C149.929 283.779 147.345 287.731 144.782 291.672C143.551 293.563 142.05 295.214 140.775 297.063C139.706 298.615 139.081 300.34 137.949 301.85C135.415 305.226 133.695 309.545 132.159 313.473C130.454 317.836 128.558 323.024 128.966 327.77C129.119 329.564 129.28 331.94 129.974 333.603C130.857 335.719 132.115 335.665 133.929 336.463C137.046 337.833 137.92 341.623 141.947 340.884C145.725 340.191 149.002 337.078 151.758 334.597C155.35 331.364 158.788 327.954 162.226 324.557C165.753 321.071 169.23 317.204 172.036 313.102C173.14 311.488 174.001 309.664 175.307 308.194C176.969 306.321 178.836 306.096 181.094 305.35C200.835 298.828 220.672 292.536 241.03 288.23C245.907 287.197 250.824 285.866 255.615 284.493C260.697 283.036 263.328 284.576 267.522 287.348C276.284 293.141 286.64 297.222 296.396 301.001C299.468 302.192 304.359 302.267 306.76 304.614C292.526 306.784 278.96 310.959 265.231 315.117C258.461 317.166 251.614 318.943 244.819 320.903C238.022 322.864 231.484 325.405 224.779 327.616C218.108 329.816 211.056 330.713 204.32 332.743C197.443 334.814 190.595 336.239 183.536 337.498C176.409 338.77 169.33 340.238 162.178 341.376C158.904 341.898 155.63 342.438 152.392 343.155C149.223 343.858 146.162 345.538 142.977 345.927C128.756 347.667 114.813 351.544 100.647 353.736C90.0698 355.372 71.6682 357.655 64.8091 347.043C57.9117 336.371 66.3737 323.922 73.9238 316.291C78.6159 311.549 83.8886 307.375 89.4205 303.662C95.3408 299.688 101.037 295.397 106.958 291.429C120.359 282.449 134.89 275.126 149.287 267.91C156.198 264.447 162.874 260.732 169.596 256.931C172.933 255.045 174.779 258.089 177.417 260.158C179.491 261.786 183.3 265.797 186.202 263.943C186.314 264.61 186.426 265.278 186.538 265.947C187.388 265.559 188.238 265.172 189.088 264.784C189.659 266.282 189.592 267.212 191.188 267.998C192.167 268.482 194.258 269.063 195.192 268.212C195.382 268.803 195.573 269.395 195.763 269.986C196.58 269.923 196.737 267.588 196.891 267.041C198.291 269.084 200.226 270.792 202.685 271.369C202.697 271.236 202.285 269.557 202.303 269.547C203.081 269.07 204.063 271.111 204.475 271.548C205.843 272.995 206.659 272.77 208.17 271.602C208.279 271.721 208.791 273.056 208.865 273.032C209.192 272.928 209.813 271.745 209.881 271.637C209.787 273.193 212.79 273.506 213.85 273.172C213.612 272.717 213.374 272.261 213.137 271.805C216.831 271.312 218.281 275.237 221.826 275.037C224.448 274.89 222.345 274.317 223.829 273.194C225.124 272.213 225.356 274.359 225.483 274.29C225.73 274.032 225.921 273.734 226.057 273.398C226.537 275.236 230.355 276.884 229.961 273.863C231.463 274.463 232.529 275.461 234.192 275.671C236.212 275.927 238.371 275.498 240.386 275.331C244.73 274.97 248.824 274.084 252.739 272.094C255.061 270.914 257.531 269.844 259.713 268.42C261.539 267.229 265.004 263.613 267.435 265.17C266.812 263.333 269.744 265.035 269.837 262.669C270.308 263.024 270.779 263.379 271.249 263.734C271.532 263.115 271.453 262.14 271.831 261.6C272.351 260.859 272.604 261.295 273.047 260.878C273.542 260.412 273.975 259.163 274.569 258.807C275.181 258.441 275.901 258.878 276.559 258.558C277.562 258.071 281.876 253.315 281.146 257.39C283 256.76 281.57 256.183 281.802 254.947C282.267 252.471 283.399 254.253 284.528 254.469C286.375 254.823 286.338 253.296 287.368 252.186C288.308 251.172 290.077 250.719 289.467 248.958C290.163 249.333 290.311 250.068 290.392 250.781ZM179.039 197.882C177.584 199.503 176.494 198.81 174.876 198.573C174.703 197.992 174.407 197.912 173.989 198.331C173.509 198.607 172.994 198.789 172.442 198.875C171.115 199.202 169.737 199.063 168.439 199.558C168.476 199.124 168.933 198.351 168.641 197.909C167.276 198.853 166.429 199.454 164.753 199.472C163.395 199.486 161.011 198.449 159.884 199.689C159.849 199.206 159.814 198.724 159.78 198.241C159.228 198.516 158.747 198.884 158.338 199.346C158.261 198.63 158.218 198.09 157.745 197.511C156.848 199.357 155.865 199.4 154.122 198.695C154.366 198.794 152.377 197.628 152.453 197.951C151.825 195.302 161.751 195.52 162.793 195.416C165.396 195.153 167.998 195 170.604 194.76C173.076 194.533 174.921 194.148 176.632 196.21C175.87 193.231 183.082 193.379 179.039 197.882ZM65.2267 151.685C65.5002 156.188 66.5024 160.975 64.7513 165.31C63.3435 168.794 60.5352 172.729 57.5101 175.003C51.3158 179.658 46.0654 173.961 45.2033 167.701C44.3046 161.171 46.086 153.192 51.7088 149.165C55.0686 146.76 58.3219 146.926 62.1902 147.717C63.0986 147.903 64.5734 147.832 65.0929 148.735C65.2147 148.946 65.1054 151.681 65.2267 151.685ZM147.496 211.688C146.427 212.228 145.307 212.544 144.364 213.279C144.036 213.535 143.924 214.116 143.577 214.331C142.944 214.722 142.04 214.462 141.38 214.785C140.288 215.319 139.506 216.082 138.208 216.574C136.282 217.304 134.592 218.305 132.772 219.255C129.737 220.837 126.481 222.195 123.309 223.483C121.708 224.133 117.279 225.4 117.433 227.744C117.075 227.841 116.709 227.057 115.961 227.12C114.934 227.205 113.578 228.392 112.512 228.684C110.518 229.23 108.975 229.278 108.975 231.82C108.34 231.389 108.179 230.334 107.335 230.194C106.384 230.037 105.985 231.062 105.224 231.381C104.329 231.757 103.216 231.396 102.329 231.796C101.941 232.206 101.51 232.564 101.036 232.87C100.554 232.925 100.074 232.911 99.5964 232.825C97.7143 233.224 95.982 233.932 94.0954 234.3C92.2568 234.659 90.9976 234.789 91.7705 236.964C89.8038 237.349 89.3232 235.261 87.1042 236.025C84.384 236.96 81.8418 237.634 79.002 238.205C77.5541 238.496 76.041 239.145 74.5823 239.298C73.5417 239.406 72.5703 239.034 71.5457 239.15C70.3107 239.288 69.3181 239.861 68.0401 239.882C66.8279 239.903 65.5551 239.685 64.3646 239.472C64.5328 239.951 64.7433 240.411 64.9962 240.851C64.173 240.679 63.7931 239.689 63.0952 239.543C62.363 239.389 61.7068 240.145 61.097 239.977C60.8373 239.906 61.01 239.105 60.5455 238.952C60.1222 238.814 59.9437 238.977 59.5238 238.912C59.3837 238.89 57.6274 238.795 57.3477 238.942C56.8586 239.202 57.3534 239.688 57.2562 239.76C55.6046 240.982 55.5846 240.322 54.8483 239.046C53.7671 237.172 52.4634 238.354 50.4984 238.026C48.3085 237.661 46.5831 238.627 44.4276 238.489C42.1027 238.341 39.3706 236.602 37.3151 235.586C32.8765 233.392 28.5482 231.316 24.8207 227.993C17.5337 221.498 11.6054 213.511 8.1101 204.366C4.3545 194.542 3.64285 184.296 3.94433 173.874C4.12567 167.606 4.62737 161.341 5.61533 155.147C6.29551 150.885 6.43795 143.313 11.2422 141.372C12.0682 151.35 9.46189 161.517 11.1054 171.429C11.6003 174.415 12.8073 178.393 15.0916 180.605C18.4736 183.878 19.2648 179.147 19.5708 176.533C20.14 171.678 21.1978 166.851 21.9466 162.02C22.6949 157.19 23.2235 152.307 24.2641 147.528C24.6433 145.786 27.7027 133.027 29.9481 133.631C29.4939 142.913 28.2874 152.035 28.2399 161.352C28.221 165.088 27.8864 169.035 28.4258 172.747C28.7033 174.657 30.4429 180.263 33.4348 179.795C36.2036 179.363 33.1597 175.415 32.9011 173.892C32.2163 169.862 33.0893 164.847 33.7277 160.847C34.9359 153.276 37.6315 145.522 42.0375 139.195C45.9836 133.53 52.0595 128.137 59.3791 129.136C62.5066 129.563 64.9464 130.34 66.5179 133.196C67.7507 135.437 72.6075 137.983 69.7929 140.789C67.2307 143.344 63.0866 141.299 60.2383 140.69C56.751 139.945 53.0137 140.841 50.0973 142.885C45.0935 146.39 42.2417 152.657 41.311 158.535C40.0565 166.46 43.4099 187.204 55.7613 182.555C63.9665 179.466 70.1465 168.356 69.4577 159.85C69.1814 156.445 67.8502 149.981 72.5612 149.062C78.5964 147.884 79.4488 154.537 78.8379 158.86C77.9494 165.149 74.6257 170.997 70.8232 175.969C67.5093 180.302 63.6547 183.012 59.6668 186.591C58.4861 187.651 55.4747 190.033 55.9804 192.004C56.5348 194.164 61.2675 194.778 63.1627 195.133C72.5377 196.888 83.11 195.273 92.469 194.048C111.705 191.529 130.687 185.325 146.46 173.918C147.098 180.976 147.901 188.01 148.197 195.093C148.34 198.531 148.377 202.019 148.77 205.439C149.012 207.542 149.887 210.481 147.496 211.688ZM94.1595 236.28C93.4043 236.674 94.2207 234.285 94.0107 235.076C95.1388 235.48 95.1886 235.882 94.1595 236.28ZM173.954 150.87C175.153 149.549 178.429 146.406 179.468 149.389C179.855 148.117 179.905 146.234 181.398 147.951C181.993 145.842 188.55 146.039 190.174 145.946C195.375 145.649 200.597 145.489 205.779 144.973C216.428 143.911 227.263 144.459 237.951 144.424C240.265 144.417 242.574 144.291 244.871 144.627C247.088 144.951 249.418 145.86 251.678 145.528C253.687 145.232 255.005 144.678 257.073 144.915C259.547 145.199 261.949 145.401 264.446 145.391C275.488 145.351 286.525 145.799 297.57 145.816C299.723 145.819 302.302 145.399 304.321 146.313C305.069 146.652 305.887 147.78 306.458 147.903C307.113 148.045 306.724 147.023 307.601 147.485C308.775 148.102 307.866 150.001 307.09 150.303C307.555 150.122 306.252 149.945 306.382 149.938C305.764 149.971 305.236 150.445 304.572 150.416C303.561 150.371 302.714 149.755 301.899 149.212C301.885 149.433 302.333 150.912 301.822 150.986C301.382 151.051 300.969 149.593 300.925 149.254C298.455 151.433 295.837 150.219 292.77 150.495C290.596 150.69 286.061 152.141 284.544 149.871C284.481 150.354 284.287 150.776 283.964 151.139C283.53 151.799 283.155 151.743 282.838 150.969C282.731 150.974 281.675 151.204 281.654 151.202C280.91 151.143 279.947 150.876 279.19 150.811C278.02 150.712 278.235 151.563 277.303 151.577C276.794 151.585 275.495 150.849 274.607 150.803C273.07 150.723 271.499 151.376 269.982 151.178C268.937 151.042 267.993 150.192 266.969 150.159C265.692 150.117 265.278 151.09 264.266 149.723C264.059 149.666 263.93 150.471 263.848 150.485C263.868 150.481 262.885 150.627 262.769 150.672C262.567 150.749 261.782 151.109 261.543 151.113C261.026 151.123 260.746 150.753 260.198 150.744C259.293 150.729 256.401 151.526 256.482 149.851C253.251 151.048 250.493 150.582 247.175 150.865C245.653 150.995 244.697 150.791 243.249 150.512C241.436 150.162 240.232 150.602 238.423 150.69C236.685 150.776 236.137 150.04 234.67 149.377C234.091 149.115 233.709 148.769 232.999 148.915C232.594 148.998 232.882 149.68 232.763 149.726C232.139 149.967 231.704 149.712 230.849 149.77C229.271 149.878 228.643 151.197 227.02 149.959C227.559 149.893 228.099 149.827 228.638 149.761C227.087 149.104 225.039 148.768 225.415 151.163C224.092 150.977 225.237 150.077 224.587 149.754C223.936 149.432 223.208 149.971 222.389 150.237C220.226 150.939 218.422 150.591 216.166 150.465C213.604 150.322 207.608 152.413 205.773 149.698C205.718 150.27 205.103 151.864 204.286 151.789C204.019 151.764 204.762 150.073 204.846 149.893C204.425 150.79 202.504 150.96 201.558 151.425C201.664 150.943 201.77 150.461 201.876 149.98C200.997 150.916 200.57 150.345 199.535 150.658C199.083 150.795 198.429 151.727 198.042 151.783C197.592 151.261 197.026 151.036 196.344 151.109C195.89 150.996 195.437 150.973 194.984 151.043C193.168 151.174 191.513 152.183 189.708 151.496C188.145 150.901 187.54 149.37 186.608 151.806C186.363 151.373 186.118 150.94 185.873 150.507C185.571 150.977 185.268 151.447 184.966 151.916C183.783 151.142 183.71 150.693 182.349 150.978C182.03 151.105 181.702 151.087 181.367 150.924C181.287 151.163 181.207 151.401 181.127 151.64C181.095 152.239 180.917 152.437 180.593 152.233C180.321 152.136 180.075 151.987 179.856 151.788C178.955 151.857 177.806 152.094 176.839 151.963C176.466 151.913 174.128 150.678 173.954 150.87ZM201.505 134.747C201.611 134.909 201.717 135.072 201.823 135.235C200.361 136.007 200.018 135.564 199.867 134.014C200.581 134.027 200.702 135.283 201.505 134.747ZM202.411 133.837C203.114 134.148 203.921 134.758 204.584 133.94C205.031 135.238 201.716 137.008 202.411 133.837ZM206.956 134.41C208.434 135.409 204.889 134.606 204.895 134.608C205.532 134.019 206.219 133.954 206.956 134.41ZM219.666 128.841C220.173 131.398 221.57 131.325 223.826 130.137C227.116 128.403 227.672 125.564 227.901 122.174C228.121 118.923 228.519 117.665 231.871 118.344C234.211 118.817 236.189 118.419 238.548 118.354C241.065 118.285 241.952 118.669 242.154 121.259C242.357 123.852 242.818 125.822 244.7 127.795C246.614 129.802 249.165 131 251.652 132.122C252.93 132.699 254.131 133.32 255.546 133.445C256.094 133.494 258.947 133.133 259.006 134.035C259.051 134.714 255.1 136.628 254.681 136.856C252.848 137.853 251.021 138.747 249.02 139.351C244.415 140.74 239.532 140.822 234.763 140.738C227.073 140.603 216.445 137.35 211.847 130.527C214.453 129.965 217.059 129.403 219.666 128.841ZM218.976 106.698C217.759 105.677 216.971 104.134 215.961 102.925C215.451 102.315 215.077 102.121 214.592 101.816C214.081 101.495 213.794 101.949 213.367 101.194C212.266 99.2413 215.664 96.4938 212.06 95.7424C210.841 95.4875 207.906 96.4537 207.551 94.7068C207.047 92.2365 211.762 92.075 212.871 90.8213C215.077 88.3286 213.58 84.1029 214.923 81.2271C216.195 78.5031 219.478 78.0191 222.069 77.2006C225.679 76.0609 229.333 75.3999 232.999 74.4875C235.562 73.85 239.821 71.2881 242.198 73.5516C238.53 74.3661 240.662 75.6445 243.107 76.3661C245.876 77.184 248.811 77.5031 251.681 77.731C254.635 77.9653 257.645 78.0099 260.564 77.4211C263.263 76.8765 266.278 74.5305 269.108 75.1313C267.537 77.8616 262.86 79.353 260.017 80.0684C258.568 80.4327 257.641 80.3187 257.836 82.1246C258.024 83.8749 259.546 85.6298 259.889 87.4529C260.344 89.8659 259.947 92.083 259.088 94.3523C258.243 96.5849 258.046 96.8764 258.784 99.0099C259.935 102.332 257.462 106.003 255.176 108.416C245.933 118.17 228.244 114.475 218.976 106.698ZM242.463 48.4021C242.5 48.5017 242.468 48.4639 242.463 48.4021ZM245.341 73.0178C244.958 73.3042 242.751 73.9044 242.843 73.0419C242.967 71.8861 244.956 72.3036 245.341 73.0178ZM250.372 49.6696C249.854 49.2835 248.403 49.4422 249.464 47.9788C249.81 48.6226 250.091 49.1461 250.372 49.6696ZM215.56 40.4191C216.22 38.7037 216.951 37.108 217.248 35.282C217.432 34.1572 217.067 32.8725 218.64 32.6961C216.636 31.822 216.615 28.3724 216.497 26.5842C216.334 24.1214 215.556 20.8241 216.638 18.5319C217.749 16.1773 219.248 16.2163 219.701 19.0205C219.878 20.1184 219.2 20.4735 219.073 21.2382C218.821 22.7508 219.322 22.4192 220.298 21.2668C220.701 22.4381 220.855 24.1981 222.495 24.1237C222.385 23.8069 221.757 23.1082 221.967 22.7147C222.289 22.1105 223.864 23.0337 224.064 23.1735C225.502 24.1792 225.814 25.0974 224.788 26.366C226.208 26.5189 225.016 27.7618 225.933 28.086C227.331 28.5803 226.393 26.2383 226.242 25.8265C227.093 26.1587 227.378 26.5378 227.917 27.2102C228.234 27.6742 228.522 28.1559 228.782 28.6542C229.071 29.5637 229.667 29.7916 230.571 29.338C232.382 29.9062 234.882 29.8174 236.506 30.8106C237.247 31.2642 237.515 32.2568 238.134 32.6336C238.831 33.058 239.765 32.8656 240.514 33.1319C240.24 33.7539 240.461 34.0907 241.178 34.1434C241.734 34.1944 242.273 34.3198 242.794 34.5191C243.184 34.2253 243.608 33.9933 244.066 33.8244C244.374 34.3668 244.809 34.5008 245.372 34.2276C247.041 34.5403 247.844 35.1721 248.905 36.1165C249.858 36.9642 249.083 37.0329 250.127 36.9579C250.546 36.9276 251.281 36.2162 252.24 36.3548C252.792 36.4625 253.325 36.6326 253.838 36.8651C254.392 37.3394 254.98 37.3989 255.603 37.0444C256.614 37.5387 256.714 38.4144 257.947 38.5341C259.31 38.667 258.872 36.9671 259.808 39.3646C261.069 36.8227 261.531 40.8721 262.833 41.1991C264.182 41.5382 264.327 40.4448 265.482 41.6396C265.828 41.9976 265.809 42.5892 266.197 42.969C266.834 43.5904 267.695 43.4661 268.248 44.3138C267.939 43.8407 268.32 45.9902 268.314 45.9192C268.4 46.8677 267.557 47.9301 269.284 47.8494C269.265 47.949 268.435 49.1581 268.274 49.0212C268.234 48.8832 268.2 48.7434 268.174 48.602C267.989 48.6816 267.906 49.8334 267.941 50.0367C268.087 50.0596 268.147 49.9508 268.12 49.7102C267.836 50.5986 268.264 51.1627 267.719 52.0058C267.37 52.5448 266.415 52.9497 265.907 53.2825C264.683 54.0855 263.485 54.8908 262.29 55.7453C259.505 57.7385 256.386 60.1418 252.878 60.5576C254.64 58.8279 264.776 52.2819 259.692 50.4027C258.749 50.0545 257.032 49.7246 256.046 49.6513C254.82 49.5602 253.551 50.2624 252.199 49.8242C250.566 49.2961 251.181 47.7617 250.184 47.2113C248.067 46.0435 248.567 48.7898 247.901 49.5092C247.2 48.7744 247.35 48.417 246.245 48.3505C245.123 48.2829 244.856 49.3202 243.546 48.6741C241.742 47.7835 242.697 46.0097 240.137 45.9679C240.18 45.5784 240.551 44.4902 240.063 44.1866C239.404 45.0406 239.914 45.9954 239.303 46.8173C238.997 47.2297 238.333 47.5584 237.849 47.6919C236.714 48.0034 236.553 48.6003 236.737 46.8917C235.896 48.4067 233.318 47.7835 231.784 47.6312C229.29 47.3832 226.64 46.9112 224.249 46.1116C222.038 45.3716 220.857 44.1007 219.034 42.9443C218.344 42.5067 218.015 42.674 217.027 42.4025C216.051 42.1344 215.1 41.615 215.56 40.4191ZM220.821 13.5953C221.198 13.3685 221.468 16.7529 221.012 17.3852C220.177 16.0639 218.696 14.1257 220.821 13.5953ZM222.024 12.2454C223.234 11.1497 222.393 13.9797 222.171 14.4545C221.723 14.167 221.274 13.8794 220.826 13.5919C221.398 13.2408 221.541 12.6824 222.024 12.2454ZM267.699 7.68454C278.884 10.0317 289.966 14.419 298.937 21.6391C307.108 28.2154 312.875 37.5461 316.108 47.4714C319.465 57.7735 318.337 69.2033 310.352 77.0878C306.146 81.2408 300.591 83.7466 295.297 86.1917C292.761 87.363 290.149 88.339 287.602 89.4833C285.774 90.3052 283.541 91.6203 281.454 91.3923C282.519 90.272 284.063 90.2491 285.352 89.5641C286.909 88.7359 288.18 87.1465 289.522 86.0113C290.855 84.8841 293.81 81.3348 295.857 82.1939C295.573 80.3032 297.727 79.4252 298.698 78.1783C299.725 76.8593 299.799 75.3169 301.691 74.885C299.659 73.295 300.281 70.2961 300.723 68.1317C301.289 65.3636 301.55 62.8223 301.773 60.0055C302.175 54.9269 302.498 48.4576 299.692 43.993C298.782 42.5434 297.623 41.2112 296.81 39.7054C295.831 37.8909 296.047 36.2935 296.047 34.3044C294.257 35.5071 293.88 33.0546 293.123 31.8593C292.556 30.9623 291.811 30.4612 291.628 29.3329C291.494 28.5115 292.385 28.3729 291.897 27.5121C291.298 27.9646 291.059 28.6656 290.756 29.3163C290.203 29.0952 290.855 28.3254 290.538 28.0751C290.529 28.0682 289.462 27.6049 289.515 27.6719C288.828 26.8019 288.608 25.358 288.271 24.3224C287.014 24.9593 287.249 24.8843 285.846 23.8201C285.599 23.6328 284.365 22.7726 284.248 22.4913C283.706 21.1763 284.657 21.9552 284.391 21.1391C283.627 18.7948 279.341 19.2381 279.001 15.7254C276.911 17.0525 276.114 15.1721 274.878 13.8348C273.611 12.4647 271.487 11.9378 271.601 9.76478C270.943 9.98987 270.285 10.2144 269.628 10.4383C269.97 8.43313 266.991 8.56085 265.912 7.54364C266.511 7.55109 267.107 7.59806 267.699 7.68454ZM269.402 131.88C270.439 130.952 270.124 132.186 270.791 132.045C271.362 131.924 271.474 131.493 272.021 131.361C274.275 130.816 277.644 131.5 280.014 131.383C282.759 131.247 287.464 131.817 288.772 135.029C289.56 136.963 288.358 136.305 287.033 136.161C286.005 136.05 285.092 136.258 284.076 136.247C283.573 136.325 283.072 136.317 282.573 136.224C282.33 136.064 282.186 135.838 282.142 135.547C280.727 135.333 279.225 136.17 277.659 136.211C275.569 136.267 273.71 135.866 272.122 134.455C271.491 135.396 271.061 135.863 269.925 135.968C269.895 135.971 268.786 135.524 268.614 135.479C268.387 135.42 267.812 135.897 267.374 135.761C268.152 134.523 268.265 132.896 269.402 131.88ZM412.172 143.056C412.541 141.772 412.85 140.472 413.186 139.18C418.346 145.054 422.861 152.917 424.893 160.451C426.213 165.346 428.267 174.216 421.975 176.741C416.849 178.798 413.991 171.425 412.694 167.794C409.831 159.778 409.831 151.212 412.172 143.056ZM181.316 51.0133C181.382 51.0001 177.975 52.9812 179.098 51.377C179.549 50.732 181.259 50.2784 182.017 50.2784L181.316 51.0133ZM178.039 51.8529C177.645 52.1845 177.247 52.5122 176.845 52.8352C176.459 52.2258 176.073 51.6164 175.688 51.007C176.448 50.6862 179.676 50.4457 178.039 51.8529ZM175.638 113.451C174.925 112.968 174.36 113.225 174.146 114.035C174.146 113.229 174.566 111.356 175.211 111.137C175.628 110.996 173.825 108.862 174.332 108.304C175.621 109.042 174.849 109.75 175.227 110.703C175.397 111.133 175.909 111.539 176.021 111.87C176.211 112.431 176.981 114.359 175.638 113.451ZM172.146 108.65C171.416 108.837 172.694 110.042 172.693 110.575C172.692 110.978 172.208 111.287 172.009 111.838C171.576 113.032 172.321 113.838 171.095 114.75C171.095 112.133 169.34 105.201 172.714 103.926C171.068 102.63 172.42 101.134 173.71 102.685C174.95 104.176 174.16 108.135 172.146 108.65ZM170.388 98.326C169.725 95.9743 167.729 95.1518 165.447 95.291C165.534 94.0871 166.447 92.3511 167.106 94.5212C167.377 93.8798 167.564 93.043 168.182 92.618C169.223 95.8804 174.41 97.6828 171.18 101.218C170.917 100.254 170.66 99.2883 170.388 98.326ZM164.36 95.4663C152.346 96.3374 135.481 98.8301 125.867 89.6219C119.599 83.6178 119.934 74.2676 124.999 67.5967C127.89 63.7902 131.836 61.1097 135.799 58.5564C137.329 57.5707 138.624 56.9201 140.303 56.3536C140.575 56.3244 140.831 56.3851 141.07 56.5357C141.164 56.1302 141.393 55.8301 141.756 55.6342C142.404 55.2871 143.328 55.1634 143.702 54.4429C143.303 55.7957 143.098 57.1887 142.952 58.5885C142.628 58.2116 142.305 57.8347 141.982 57.4579C141.712 60.0072 139.056 58.4642 137.47 58.7826C138.514 60.2283 139.262 60.7535 139.351 62.6642C138.573 61.2277 136.946 60.2833 135.434 59.8205C136.255 62.2501 136.836 63.6923 136.009 66.3567C135.01 65.7863 134.942 64.4162 133.731 64.088C133.411 65.6769 133.354 67.4398 132.945 68.9816C129.842 67.5664 130.145 71.378 131.391 73.2641C132.053 74.2676 132.379 75.4291 132.969 76.3925C134.42 78.7551 133.318 75.2218 134.93 75.3896C134.568 77.8816 134.442 78.1296 136.266 79.9544C138.045 81.734 138.969 84.2031 140.873 85.875C141.423 85.1705 140.557 84.4334 140.481 83.7592C142.252 84.0565 143.082 85.8326 144.785 84.2592C145.527 85.7066 146.331 87.3006 148.11 87.5978C146.934 85.3629 150.368 86.8784 151.248 87.1957C151.916 87.4363 153.112 87.6276 153.37 87.7204C154.821 88.2445 153.826 87.304 154.707 89.0217C156 88.6316 156.488 87.5589 158.034 88.465C159.291 89.2021 159.294 90.4644 159.581 91.7577C159.881 90.9118 160.184 90.0664 160.515 89.2319C160.852 89.3739 162.268 90.9318 162.114 90.9393C165.427 90.7766 165.31 92.8339 164.36 95.4663ZM147.492 53.2917C148.158 52.8249 148.97 53.4463 149.717 53.2791C150.751 53.0482 151.339 52.1622 152.495 52.0671C152.173 53.0946 151.57 52.9984 151.059 53.8054C150.885 54.0803 150.976 54.7402 150.821 54.8982C149.526 56.2247 149.079 55.1422 147.757 54.1382C147.872 55.349 148.105 55.7316 146.964 56.0563C145.931 56.3507 144.227 55.2665 143.707 54.4349C144.145 53.5563 146.696 53.8507 147.492 53.2917ZM155.735 51.3993C156.857 51.5064 155.506 54.8158 153.898 51.6055C154.504 51.4737 155.116 51.405 155.735 51.3993ZM161.503 50.7595C163.272 50.3987 169.173 48.7171 169.83 51.4709C169.948 51.4022 170.386 49.8477 170.591 50.0373C171.408 50.7973 171.499 51.8048 171.437 52.8604C170.449 50.8031 170.8 52.6101 170.131 52.4692C169.956 52.432 169.689 52.7584 169.246 52.6238C168.666 52.4469 168.25 51.2126 167.884 50.7945C167.274 51.665 166.519 52.7859 165.297 52.7103C164.433 52.6571 163.04 50.4313 164.16 52.8678C163.502 52.6508 162.741 52.1593 162.009 52.2579C161.189 52.3684 160.763 53.1777 159.995 53.3083C158.291 53.5969 158.034 51.9577 156.929 51.0677C158.454 50.9789 159.997 51.0665 161.503 50.7595ZM172.206 50.7332C172.331 50.1684 173.879 49.9405 174.273 50.1198C175.235 50.5568 174.879 51.1335 174.703 52.0935C173.989 51.7555 173.275 51.4182 172.561 51.0803C173.627 52.7962 171.696 53.0454 172.206 50.7332ZM471.86 151.247C471.734 147.134 471.614 142.951 470.572 138.947C469.842 136.145 468.05 131.121 464.66 130.635C459.547 129.901 456.716 140.006 455.284 143.474C454.997 139.391 455.248 135.044 453.705 131.168C452.47 128.062 449.35 125.121 446.663 128.609C444.272 131.713 443.813 136.296 443.183 140.03C442.368 144.87 441.878 149.747 441.282 154.616C438.947 150.103 438.539 144.938 436.693 140.248C434.952 135.822 432.211 131.595 429.571 127.658C427.416 124.443 424.793 121.42 421.415 119.454C418.475 117.743 413.335 115.893 410.533 118.734C408.195 121.105 408.561 124.277 408.683 127.269C408.737 128.601 408.946 129.515 407.774 130.186C407.199 130.516 406.299 130.345 405.666 130.522C404.647 130.806 403.865 131.289 403.003 131.929C396.957 136.423 394.169 144.521 393.307 151.741C392.215 160.889 395.781 168.732 398.85 177.102C399.339 178.436 400.892 181.266 400.678 182.755C400.443 184.387 398.395 184.429 397.013 184.463C392.839 184.566 388.476 184.255 384.324 183.866C374.436 182.941 364.557 178.181 355.703 173.931C354.088 173.156 351.803 172.712 350.485 171.491C349.245 170.343 348.919 168.503 347.849 167.186C345.223 163.955 343.55 161.198 339.684 159.246C335.747 157.259 331.729 155.422 327.888 153.245C323.137 150.552 318.748 147.141 314.196 144.125C305.736 138.522 297.333 132.38 288.364 127.616C284.196 125.402 279.539 125.043 275.212 123.23C270.998 121.465 265.825 121.463 261.428 122.578C259.286 123.121 257.828 124.409 255.858 125.249C253.549 126.234 251.666 125.147 249.635 123.971C246.531 122.175 243.453 119.248 247.874 117.31C249.373 116.653 251.252 116.404 252.562 115.37C253.958 114.269 255.079 112.236 256.214 110.857C258.738 107.79 260.246 104.259 263.94 102.351C268.025 100.242 272.868 99.668 277.223 98.2894C281.943 96.7962 286.564 95.0207 291.196 93.2772C299.54 90.1363 308.216 86.745 314.212 79.8307C319.384 73.8655 321.638 66.166 321.429 58.3456C321.002 42.3584 312.439 26.1335 300.151 16.1378C285.084 3.88089 265.917 -0.206267 246.885 0.00794202C237.952 0.108746 227.293 1.27773 219.84 6.70456C213.403 11.392 212.332 19.5903 213.29 26.9909C213.678 29.9944 215.006 33.9578 212.888 36.6045C211.703 38.0851 209.575 38.4517 207.978 39.3749C205.971 40.5348 204.202 41.6465 201.929 42.2599C192.275 44.8671 182.106 43.9592 172.235 43.8149C155.791 43.5743 138.937 48.0264 126.67 59.6131C116.764 68.969 113.793 86.6115 125.875 95.7326C135.636 103.101 150.947 102.291 162.456 101.005C166.025 100.606 168.479 100.027 168.487 104.393C168.496 109.163 167.706 114.148 168.923 118.831C170.84 126.206 177.926 126.382 184.192 124.794C187.497 123.956 190.693 122.696 193.833 121.376C198.437 119.441 202.658 116.595 207.205 114.663C210.288 113.353 212.596 117.588 215.331 114.652C215.836 114.11 215.929 113.301 216.691 113.023C217.886 112.589 219.889 114.113 220.936 114.596C222.505 115.318 224.086 115.849 224.713 117.588C225.299 119.214 225.042 121.801 224.48 123.406C223.26 126.894 219.975 126.204 216.975 125.971C211.743 125.564 206.547 124.701 201.317 124.338C196.625 124.013 192.231 125.415 188.183 127.729C179.683 132.589 172.728 140.319 165.358 146.676C161.565 149.947 157.898 153.481 153.773 156.33C151.979 157.569 150.036 158.707 148.478 160.247C146.931 161.774 146.761 163.162 146.232 165.194C145.289 168.812 140.611 170.581 137.686 172.49C133.55 175.189 129.165 177.094 124.528 178.75C114.709 182.258 104.812 184.707 94.5462 186.517C89.52 187.404 84.5356 187.986 79.4603 188.465C75.0857 188.878 70.4337 190.225 66.0642 189.149C67.3228 187.107 69.5527 185.882 71.2895 184.304C73.5285 182.27 75.4329 179.86 77.1274 177.362C80.4259 172.5 82.7393 167.282 83.2708 161.384C83.7496 156.076 83.2004 149.725 79.9974 145.241C78.8911 143.692 76.7023 143.27 75.7121 141.875C74.7276 140.488 75.1028 138.1 74.564 136.483C73.1916 132.369 69.119 127.272 65.5351 124.883C61.6467 122.29 55.9587 121.338 51.4669 122.689C43.1456 125.192 38.0342 134.084 34.2266 141.272C32.1465 136.895 35.6298 130.401 31.5665 126.817C28.1392 123.793 25.419 129.65 24.2726 132.156C18.8918 143.919 17.6699 156.395 15.4154 168.98C14.4966 168.075 14.9674 165.75 15.0538 164.67C15.2146 162.659 15.1997 160.687 15.2037 158.667C15.2146 153.566 16.163 148.441 15.7283 143.344C15.4771 140.398 14.5378 134.185 10.2571 135.164C6.62674 135.994 4.35278 141.099 3.21208 144.22C1.56683 148.722 1.18698 153.179 1.28937 157.934C1.40264 163.189 0.401531 168.357 0.158976 173.604C-0.312406 183.796 0.153255 193.9 3.07765 203.737C7.8664 219.844 18.8769 233.228 33.5721 241.309C41.6685 245.762 50.6505 248.58 59.8854 249.186C64.8898 249.514 69.7209 248.918 74.6824 248.401C79.5787 247.89 84.5007 247.654 89.3884 247.055C100.274 245.72 110.88 242.274 120.774 237.637C125.982 235.196 130.88 232.199 136.003 229.596C138.058 228.553 139.447 227.246 141.201 225.794C142.94 224.356 143.422 224.243 145.399 224.243C144.819 222.691 146.512 222.212 147.266 221.23C147.224 221.707 147.181 222.183 147.139 222.659C147.713 221.413 148.248 221.425 148.743 222.695C149.232 221.272 149.594 219.81 150.185 218.424C152.443 219.567 152.253 222.283 155.272 220.3C157.759 218.668 160.045 216.742 162.58 215.142C168.354 211.497 173.333 206.755 179.124 203.152C179.124 206.661 179.372 210.201 178.903 213.692C178.457 217.012 177.217 220.115 176.231 223.293C174.413 229.157 174.287 235.423 172.273 241.228C171.44 243.632 169.269 245.643 168.646 247.983C168.012 250.37 169.477 252.283 167.02 253.851C165.288 254.955 163.123 255.422 161.205 256.091C158.279 257.111 155.501 258.55 152.652 259.771C139.292 265.495 126.261 271.325 113.883 279.023C102.136 286.327 90.2099 293.871 79.4191 302.545C70.0538 310.074 60.5867 319.809 58.307 332.09C56.0949 344.003 61.9888 356.79 73.8237 360.713C79.9774 362.753 86.9343 362.501 93.3425 362.589C100.238 362.684 107.545 361.022 114.325 359.82C121.485 358.55 128.522 356.562 135.702 355.428C142.592 354.34 148.911 351.908 155.687 350.409C162.905 348.813 170.308 347.947 177.565 346.511C180.833 345.864 184.034 344.911 187.31 344.312C190.897 343.657 194.524 343.411 198.076 342.544C204.965 340.86 211.561 338.145 218.481 336.579C221.592 335.875 224.655 334.931 227.767 334.273C230.633 333.667 232.865 332.057 235.737 333.379C238.057 334.448 239.907 336.28 242.103 337.556C244.95 339.212 247.953 340.695 250.922 342.119C256.887 344.982 263.074 346.96 269.311 349.109C275.863 351.367 282.297 353.941 289.085 355.432C296.043 356.96 303.142 357.386 310.149 358.595C324.498 361.07 338.726 362.182 353.292 362.272C360.655 362.318 368.016 361.445 375.361 361.548C381.864 361.64 387.517 363.105 393.463 359.648C402.964 354.125 413.984 345.804 413.751 333.719C413.538 322.773 406.972 312.315 400.814 303.682C393.335 293.198 382.672 285.815 372.221 278.583C361.082 270.876 348.571 265.551 336.864 258.823C330.877 255.383 325.355 251.681 318.854 249.236C315.751 248.069 312.724 246.716 309.657 245.46C307.189 244.449 303.625 243.89 301.513 242.213C300.195 241.166 300.069 239.582 299.721 238.025C298.95 234.582 297.739 231.316 296.565 227.995C294.298 221.583 292.792 215.052 291.818 208.327C290.89 201.915 288.828 195.248 289.896 188.732C296.917 195.524 304.132 202.053 311.316 208.664C314.008 211.142 316.651 213.672 319.357 216.135C321.389 217.984 323.93 220.73 326.762 221.279C330.379 221.98 329.058 217.979 331.541 217.359C333.059 216.98 337.636 220.837 338.837 221.598C346.443 226.427 354.865 229.487 363.231 232.775C372.004 236.221 381.026 239.282 390.465 240.15C399.185 240.952 408.101 239.922 416.515 237.547C433.272 232.816 445.603 221.592 454.653 207.041C464.964 190.461 472.467 171.039 471.86 151.247Z" fill="black"/>
<path fill-rule="evenodd" clip-rule="evenodd" d="M215.753 115.102C215.751 115.107 215.725 115.162 215.725 115.162C215.757 115.14 215.766 115.12 215.753 115.102Z" fill="black"/>
<path fill-rule="evenodd" clip-rule="evenodd" d="M216.563 115.316C216.5 114.788 216.364 114.271 216.156 113.765C215.602 114.644 215.105 115.021 215.834 115.952C216.077 115.74 216.319 115.528 216.563 115.316Z" fill="black"/>
<path fill-rule="evenodd" clip-rule="evenodd" d="M255.203 241.011C255.824 240.351 254.739 240.102 254.327 240.093C254.367 240.801 254.016 242.499 254.986 242.827C254.753 242.186 254.826 241.581 255.203 241.011Z" fill="black"/>
<path fill-rule="evenodd" clip-rule="evenodd" d="M238.835 102.851C237.768 104.91 240.124 105.549 241.488 104.554C242.514 103.806 243.121 101.899 243.289 100.676C243.835 96.7172 241.065 92.9494 239.684 89.4369C239.327 88.5289 238.838 85.4153 237.689 85.3296C236.368 85.2313 236.27 88.0992 236.253 88.8392C236.202 91.0706 236.793 93.3431 237.486 95.4493C238.232 97.72 240.081 100.446 238.835 102.851Z" fill="black"/>
<path fill-rule="evenodd" clip-rule="evenodd" d="M243.907 94.5913C248.006 98.2412 251.285 92.1621 250.998 88.5662C250.927 87.6752 250.326 84.3904 248.636 85.5859C247.787 86.1865 248.511 88.1381 248.106 88.9948C246.146 93.1492 244.258 86.7055 242.938 86.1994C241.331 85.5831 241.17 87.6937 241.172 88.8218C241.176 91.061 242.242 93.1082 243.907 94.5913Z" fill="black"/>
<path fill-rule="evenodd" clip-rule="evenodd" d="M229.027 95.1582C229.993 93.6378 231.18 91.5986 231.311 89.7772C231.515 86.946 229.865 87.1822 228.507 89.1577C227.548 90.553 226.829 92.9198 224.711 92.3316C222.097 91.6062 222.896 88.0912 221.433 86.4209C217.737 91.3844 224.73 101.923 229.027 95.1582Z" fill="black"/>
<path fill-rule="evenodd" clip-rule="evenodd" d="M234.566 110.348C236.095 110.678 240.079 110.556 238.698 108.216C236.957 105.268 231.167 109.613 234.566 110.348Z" fill="black"/>
<path fill-rule="evenodd" clip-rule="evenodd" d="M288.111 22.4365C288.391 21.6033 288.006 21.452 287.339 20.7959C286.707 21.379 287.517 21.9924 288.111 22.4365Z" fill="black"/>
<path fill-rule="evenodd" clip-rule="evenodd" d="M316.619 173.346C317.628 173.506 317.952 172.973 317.593 171.746C316.002 171.643 315.678 172.176 316.619 173.346Z" fill="black"/>
<path fill-rule="evenodd" clip-rule="evenodd" d="M261.558 44.6123C262.67 45.1208 262.244 46.1641 262.225 47.0459C262.798 46.4233 263.955 45.2851 263.484 44.3908C262.758 43.0119 260.861 44.2942 261.558 44.6123Z" fill="black"/>
<path fill-rule="evenodd" clip-rule="evenodd" d="M223.672 27.2571C223.503 26.9263 223.333 26.5955 223.164 26.2646C222.473 26.8189 221.406 28.2847 222.504 28.999C222.954 28.4529 223.343 27.8723 223.672 27.2571Z" fill="black"/>
<path fill-rule="evenodd" clip-rule="evenodd" d="M237.017 36.9855C238.401 38.0707 237.737 34.7398 237.695 34.4678C237.49 34.8585 236.318 36.4373 237.017 36.9855Z" fill="black"/>
<path fill-rule="evenodd" clip-rule="evenodd" d="M236.25 35.2939C236.144 35.0188 236.038 34.7436 235.932 34.4678C235.372 34.9871 234.684 36.0477 235.611 36.6553C235.865 36.2297 236.078 35.7761 236.25 35.2939Z" fill="black"/>
<path fill-rule="evenodd" clip-rule="evenodd" d="M245.039 46.7324C245.152 46.8367 245.265 46.941 245.378 47.0459C245.834 46.1252 245.315 45.4334 244.453 45.4053C244.514 45.9222 244.71 46.3646 245.039 46.7324Z" fill="black"/>
<path fill-rule="evenodd" clip-rule="evenodd" d="M207.957 150.314C208.507 149.941 209.005 149.514 209.453 149.036C207.829 148.043 208.802 150.195 206.846 148.874C206.425 149.456 207.113 150.759 207.957 150.314Z" fill="black"/>
<path fill-rule="evenodd" clip-rule="evenodd" d="M276.228 240.64C276.846 239.692 276.957 239.719 276.114 238.999C275.41 240.171 275.483 239.87 276.228 240.64Z" fill="black"/>
<path fill-rule="evenodd" clip-rule="evenodd" d="M147.109 89.744C147.446 90.0948 147.782 90.4456 148.118 90.7959C148.275 90.337 149.132 89.0401 148.55 88.6084C148.07 88.9869 147.59 89.3655 147.109 89.744Z" fill="black"/>
<path fill-rule="evenodd" clip-rule="evenodd" d="M159.072 93.2142C158.535 93.1246 157.25 92.7329 156.953 93.232C157.739 93.8758 159.512 93.288 159.072 93.2142Z" fill="black"/>
</svg>
